<svg xmlns="http://www.w3.org/2000/svg" version="1.1" xmlns:xlink="http://www.w3.org/1999/xlink" xmlns:svgjs="http://svgjs.com/svgjs" width="1920" height="1080" preserveAspectRatio="none" viewBox="0 0 1920 1080"><g mask="url(&quot;#SvgjsMask1000&quot;)" fill="none"><path d="M1831.049,710.652C1882.19,711.345,1930.788,685.229,1955.957,640.704C1980.756,596.833,1977.551,542.128,1950.262,499.761C1925.024,460.577,1877.655,446.303,1831.049,446.778C1785.426,447.243,1740.158,463.461,1715.97,502.147C1690.342,543.137,1688.509,595.073,1711.869,637.397C1736.02,681.154,1781.075,709.975,1831.049,710.652" fill="rgba(103, 106, 245, 0.09)" class="triangle-float1"></path><path d="M1463.289,945.487C1550.585,950.443,1636.197,901.404,1675.279,823.187C1711.242,751.212,1675.385,671.247,1635.124,601.585C1594.907,531.999,1543.659,456.984,1463.289,456.389C1382.276,455.789,1323.484,526.678,1286.986,599.006C1254.429,663.525,1256.481,736.864,1289.255,801.273C1325.875,873.241,1382.67,940.91,1463.289,945.487" fill="rgba(103, 106, 245, 0.09)" class="triangle-float2"></path><path d="M933.969,828.329C980.686,830.068,1026.474,810.362,1051.55,770.907C1078.524,728.466,1083.685,674.627,1059.773,630.388C1034.714,584.027,986.601,550.697,933.969,553.368C884.783,555.864,850.296,597.965,828.494,642.125C809.424,680.752,809.397,725.202,830.629,762.684C852.187,800.741,890.26,826.702,933.969,828.329" fill="rgba(103, 106, 245, 0.09)" class="triangle-float2"></path><path d="M-42.598,237.341C-0.731,240.079,40.578,219.55,61.651,183.27C82.811,146.841,78.602,101.752,57.258,65.43C36.212,29.616,-1.067,5.011,-42.598,5.867C-82.82,6.696,-117.496,33.462,-135.567,69.406C-151.952,101.996,-143.299,139.108,-125.632,171.021C-107.244,204.237,-80.483,234.863,-42.598,237.341" fill="rgba(103, 106, 245, 0.09)" class="triangle-float3"></path><path d="M1269.731,1227.43C1339.777,1225.402,1386.836,1161.602,1417.72,1098.7C1444.515,1044.126,1443.118,983.183,1416.485,928.53C1385.434,864.81,1340.394,800.592,1269.731,795.009C1191.106,788.797,1113.007,831.781,1076.443,901.663C1041.962,967.564,1068.16,1043.758,1106.113,1107.723C1143.072,1170.013,1197.332,1229.527,1269.731,1227.43" fill="rgba(103, 106, 245, 0.09)" class="triangle-float2"></path><path d="M736.297,1247.593C799.91,1248.159,871.959,1242.571,903.942,1187.579C936.032,1132.404,904.95,1067.116,873.6,1011.517C841.456,954.511,801.737,889.563,736.297,890.262C671.483,890.954,635.317,957.656,603.984,1014.398C574.122,1068.476,543.252,1130.914,573.737,1184.643C604.472,1238.811,674.019,1247.039,736.297,1247.593" fill="rgba(103, 106, 245, 0.09)" class="triangle-float1"></path><path d="M1063.636,420.618C1123.982,420.54,1175.827,380.924,1204.928,328.058C1232.959,277.135,1235.107,214.556,1204.15,165.357C1174.939,118.934,1118.426,100.962,1063.636,103.509C1013.464,105.842,970.87,134.973,944.066,177.449C914.967,223.562,897.646,279.496,921.706,328.427C948.387,382.687,1003.171,420.697,1063.636,420.618" fill="rgba(103, 106, 245, 0.09)" class="triangle-float3"></path><path d="M229.198,269.697C279.567,269.377,333.465,256.703,358.208,212.829C382.642,169.503,365.135,117.273,339.038,74.928C314.479,35.077,275.999,4.467,229.198,3.492C180.765,2.483,136.814,29.104,111.138,70.183C83.687,114.101,70.941,169.915,97.316,214.487C123.328,258.446,178.12,270.022,229.198,269.697" fill="rgba(103, 106, 245, 0.09)" class="triangle-float3"></path><path d="M218.218,999.794C266.389,999.838,303.464,961.092,325.672,918.346C346.017,879.186,345.433,833.787,324.705,794.828C302.51,753.112,265.437,718.181,218.218,716.381C168.188,714.474,120.153,741.915,96.677,786.136C74.43,828.042,87.646,876.911,111.105,918.15C134.897,959.973,170.101,999.75,218.218,999.794" fill="rgba(103, 106, 245, 0.09)" class="triangle-float1"></path><path d="M1213.871,1134.666C1252.222,1133.412,1287.731,1114.862,1307.444,1081.941C1327.725,1048.07,1329.824,1006.515,1311.563,971.513C1291.805,933.641,1256.582,903.233,1213.871,902.583C1170.201,901.919,1132.346,930.419,1110.891,968.461C1089.834,1005.798,1086.481,1051.99,1109.058,1088.429C1130.614,1123.22,1172.965,1136.004,1213.871,1134.666" fill="rgba(103, 106, 245, 0.09)" class="triangle-float3"></path><path d="M1136.243,175.989C1182.653,176.034,1225.959,148.911,1246.493,107.291C1265.13,69.516,1248.413,27.515,1227.55,-9.078C1206.414,-46.15,1178.916,-86.369,1136.243,-86.086C1093.853,-85.805,1067.971,-44.726,1047.011,-7.88C1026.378,28.391,1008.14,69.537,1026.359,107.079C1046.591,148.768,1089.904,175.945,1136.243,175.989" fill="rgba(103, 106, 245, 0.09)" class="triangle-float3"></path><path d="M1381.298,117.723C1415.126,120.639,1454.074,116.301,1471.23,87.001C1488.491,57.521,1473.975,20.871,1454.399,-7.126C1437.851,-30.793,1410.171,-41.079,1381.298,-41.617C1351.233,-42.178,1318.368,-35.976,1303.317,-9.944C1288.254,16.108,1299.048,47.828,1314.735,73.509C1329.617,97.873,1352.855,115.271,1381.298,117.723" fill="rgba(103, 106, 245, 0.09)" class="triangle-float2"></path></g><defs><mask id="SvgjsMask1000"><rect width="1920" height="1080" fill="#ffffff"></rect></mask><style>
            @keyframes float1 {
                0%{transform: translate(0, 0)}
                50%{transform: translate(-10px, 0)}
                100%{transform: translate(0, 0)}
            }

            .triangle-float1 {
                animation: float1 5s infinite;
            }

            @keyframes float2 {
                0%{transform: translate(0, 0)}
                50%{transform: translate(-5px, -5px)}
                100%{transform: translate(0, 0)}
            }

            .triangle-float2 {
                animation: float2 4s infinite;
            }

            @keyframes float3 {
                0%{transform: translate(0, 0)}
                50%{transform: translate(0, -10px)}
                100%{transform: translate(0, 0)}
            }

            .triangle-float3 {
                animation: float3 6s infinite;
            }
        </style></defs></svg>